<?xml version="1.0" encoding="UTF-8" standalone="no"?>
<!DOCTYPE svg PUBLIC "-//W3C//DTD SVG 1.1//EN"
 "http://www.w3.org/Graphics/SVG/1.1/DTD/svg11.dtd">
<!-- Generated by graphviz version 2.26.3 (20100126.1600)
 -->
<!-- Title: controllers_diagram Pages: 1 -->
<svg width="1956pt" height="1591pt"
 viewBox="0.00 0.00 1956.00 1591.00" xmlns="http://www.w3.org/2000/svg" xmlns:xlink="http://www.w3.org/1999/xlink">
<g id="graph1" class="graph" transform="scale(1 1) rotate(0) translate(4 1587)">
<title>controllers_diagram</title>
<polygon fill="white" stroke="white" points="-4,5 -4,-1587 1953,-1587 1953,5 -4,5"/>
<!-- _diagram_info -->
<g id="node1" class="node"><title>_diagram_info</title>
<text text-anchor="start" x="1745" y="-1566.3" font-family="Times Roman,serif" font-size="13.00">Controllers diagram</text>
<text text-anchor="start" x="1745" y="-1549.3" font-family="Times Roman,serif" font-size="13.00">Date: Jun 20 2014 &#45; 18:31</text>
<text text-anchor="start" x="1745" y="-1532.3" font-family="Times Roman,serif" font-size="13.00">Migration version: 104</text>
<text text-anchor="start" x="1745" y="-1515.3" font-family="Times Roman,serif" font-size="13.00">Generated by RailRoady 1.1.1</text>
<text text-anchor="start" x="1745" y="-1498.3" font-family="Times Roman,serif" font-size="13.00">http://railroady.prestonlee.com</text>
</g>
<!-- XmlController -->
<g id="node2" class="node"><title>XmlController</title>
<ellipse fill="none" stroke="black" cx="885.442" cy="-330.614" rx="79.9031" ry="18.3848"/>
<text text-anchor="middle" x="885.442" y="-327.014" font-family="Times Roman,serif" font-size="14.00">XmlController</text>
</g>
<!-- CommentsController -->
<g id="node3" class="node"><title>CommentsController</title>
<ellipse fill="none" stroke="black" cx="1708.87" cy="-473.444" rx="111.93" ry="18.3848"/>
<text text-anchor="middle" x="1708.87" y="-469.844" font-family="Times Roman,serif" font-size="14.00">CommentsController</text>
</g>
<!-- AuthorsController -->
<g id="node4" class="node"><title>AuthorsController</title>
<ellipse fill="none" stroke="black" cx="478.445" cy="-326.653" rx="98.9949" ry="18.3848"/>
<text text-anchor="middle" x="478.445" y="-323.053" font-family="Times Roman,serif" font-size="14.00">AuthorsController</text>
</g>
<!-- SetupController -->
<g id="node5" class="node"><title>SetupController</title>
<ellipse fill="none" stroke="black" cx="482.655" cy="-600.817" rx="89.0955" ry="18.3848"/>
<text text-anchor="middle" x="482.655" y="-597.217" font-family="Times Roman,serif" font-size="14.00">SetupController</text>
</g>
<!-- AccountsController -->
<g id="node6" class="node"><title>AccountsController</title>
<ellipse fill="none" stroke="black" cx="1131.84" cy="-521.29" rx="104.151" ry="18.3848"/>
<text text-anchor="middle" x="1131.84" y="-517.69" font-family="Times Roman,serif" font-size="14.00">AccountsController</text>
</g>
<!-- ArticlesController -->
<g id="node7" class="node"><title>ArticlesController</title>
<ellipse fill="none" stroke="black" cx="134.018" cy="-402.644" rx="96.8736" ry="18.3848"/>
<text text-anchor="middle" x="134.018" y="-399.044" font-family="Times Roman,serif" font-size="14.00">ArticlesController</text>
</g>
<!-- TextfilterController -->
<g id="node8" class="node"><title>TextfilterController</title>
<ellipse fill="none" stroke="black" cx="1111.81" cy="-290.505" rx="103.945" ry="18.3848"/>
<text text-anchor="middle" x="1111.81" y="-286.905" font-family="Times Roman,serif" font-size="14.00">TextfilterController</text>
</g>
<!-- CategoriesController -->
<g id="node9" class="node"><title>CategoriesController</title>
<ellipse fill="none" stroke="black" cx="929.553" cy="-19.5" rx="111.93" ry="18.3848"/>
<text text-anchor="middle" x="929.553" y="-15.9" font-family="Times Roman,serif" font-size="14.00">CategoriesController</text>
</g>
<!-- ContentController -->
<g id="node10" class="node"><title>ContentController</title>
<ellipse fill="none" stroke="black" cx="704.07" cy="-424.884" rx="99.9096" ry="18.3848"/>
<text text-anchor="middle" x="704.07" y="-421.284" font-family="Times Roman,serif" font-size="14.00">ContentController</text>
</g>
<!-- ContentController&#45;&gt;AuthorsController -->
<g id="edge6" class="edge"><title>ContentController&#45;&gt;AuthorsController</title>
<path fill="none" stroke="black" d="M664.769,-407.774C623.484,-389.799 558.932,-361.695 517.673,-343.732"/>
</g>
<!-- ContentController&#45;&gt;ArticlesController -->
<g id="edge12" class="edge"><title>ContentController&#45;&gt;ArticlesController</title>
<path fill="none" stroke="black" d="M606.075,-421.061C500.547,-416.944 333.781,-410.437 229.312,-406.361"/>
</g>
<!-- ThemeController -->
<g id="node11" class="node"><title>ThemeController</title>
<ellipse fill="none" stroke="black" cx="1271.69" cy="-19.8891" rx="94.0452" ry="18.3848"/>
<text text-anchor="middle" x="1271.69" y="-16.2891" font-family="Times Roman,serif" font-size="14.00">ThemeController</text>
</g>
<!-- ContentController&#45;&gt;ThemeController -->
<g id="edge20" class="edge"><title>ContentController&#45;&gt;ThemeController</title>
<path fill="none" stroke="black" d="M721.606,-406.498C740.896,-386.712 773.234,-354.809 803.844,-330.461 959.871,-206.353 1165.16,-82.3428 1241.45,-37.4707"/>
</g>
<!-- GroupingController -->
<g id="node33" class="node"><title>GroupingController</title>
<ellipse fill="none" stroke="black" cx="610.723" cy="-33.5042" rx="104.86" ry="18.3848"/>
<text text-anchor="middle" x="610.723" y="-29.9042" font-family="Times Roman,serif" font-size="14.00">GroupingController</text>
</g>
<!-- ContentController&#45;&gt;GroupingController -->
<g id="edge64" class="edge"><title>ContentController&#45;&gt;GroupingController</title>
<path fill="none" stroke="black" d="M699.631,-406.27C683.906,-340.34 630.957,-118.342 615.189,-52.2319"/>
</g>
<!-- BackendController -->
<g id="node35" class="node"><title>BackendController</title>
<ellipse fill="none" stroke="black" cx="148.846" cy="-690.721" rx="101.116" ry="18.3848"/>
<text text-anchor="middle" x="148.846" y="-687.121" font-family="Times Roman,serif" font-size="14.00">BackendController</text>
</g>
<!-- ContentController&#45;&gt;BackendController -->
<g id="edge66" class="edge"><title>ContentController&#45;&gt;BackendController</title>
<path fill="none" stroke="black" d="M667.64,-442.326C566.916,-490.552 285.5,-625.292 185.049,-673.387"/>
</g>
<!-- TrackbacksController -->
<g id="node12" class="node"><title>TrackbacksController</title>
<ellipse fill="none" stroke="black" cx="1677.59" cy="-68.054" rx="113.137" ry="18.3848"/>
<text text-anchor="middle" x="1677.59" y="-64.454" font-family="Times Roman,serif" font-size="14.00">TrackbacksController</text>
</g>
<!-- TagsController -->
<g id="node13" class="node"><title>TagsController</title>
<ellipse fill="none" stroke="black" cx="183.824" cy="-41.3737" rx="82.0244" ry="18.3848"/>
<text text-anchor="middle" x="183.824" y="-37.7737" font-family="Times Roman,serif" font-size="14.00">TagsController</text>
</g>
<!-- FeedbackController -->
<g id="node14" class="node"><title>FeedbackController</title>
<ellipse fill="none" stroke="black" cx="1373.95" cy="-367.609" rx="104.86" ry="18.3848"/>
<text text-anchor="middle" x="1373.95" y="-364.009" font-family="Times Roman,serif" font-size="14.00">FeedbackController</text>
</g>
<!-- FeedbackController&#45;&gt;CommentsController -->
<g id="edge4" class="edge"><title>FeedbackController&#45;&gt;CommentsController</title>
<path fill="none" stroke="black" d="M1425.18,-383.798C1487.94,-403.631 1593.68,-437.045 1656.81,-456.995"/>
</g>
<!-- FeedbackController&#45;&gt;TrackbacksController -->
<g id="edge22" class="edge"><title>FeedbackController&#45;&gt;TrackbacksController</title>
<path fill="none" stroke="black" d="M1392.48,-349.322C1446.69,-295.843 1604.52,-140.141 1658.91,-86.4829"/>
</g>
<!-- Admin::DashboardController -->
<g id="node15" class="node"><title>Admin::DashboardController</title>
<ellipse fill="none" stroke="black" cx="1717.05" cy="-1246.41" rx="149.907" ry="18.3848"/>
<text text-anchor="middle" x="1717.05" y="-1242.81" font-family="Times Roman,serif" font-size="14.00">Admin::DashboardController</text>
</g>
<!-- Admin::SeoController -->
<g id="node16" class="node"><title>Admin::SeoController</title>
<ellipse fill="none" stroke="black" cx="984.841" cy="-1355.11" rx="115.966" ry="18.3848"/>
<text text-anchor="middle" x="984.841" y="-1351.51" font-family="Times Roman,serif" font-size="14.00">Admin::SeoController</text>
</g>
<!-- Admin::SidebarController -->
<g id="node17" class="node"><title>Admin::SidebarController</title>
<ellipse fill="none" stroke="black" cx="1391.34" cy="-960.717" rx="133.851" ry="18.3848"/>
<text text-anchor="middle" x="1391.34" y="-957.117" font-family="Times Roman,serif" font-size="14.00">Admin::SidebarController</text>
</g>
<!-- Admin::CacheController -->
<g id="node18" class="node"><title>Admin::CacheController</title>
<ellipse fill="none" stroke="black" cx="1374.05" cy="-665.486" rx="126.78" ry="18.3848"/>
<text text-anchor="middle" x="1374.05" y="-661.886" font-family="Times Roman,serif" font-size="14.00">Admin::CacheController</text>
</g>
<!-- Admin::TextfiltersController -->
<g id="node19" class="node"><title>Admin::TextfiltersController</title>
<ellipse fill="none" stroke="black" cx="492.646" cy="-1258.92" rx="145.163" ry="18.3848"/>
<text text-anchor="middle" x="492.646" y="-1255.32" font-family="Times Roman,serif" font-size="14.00">Admin::TextfiltersController</text>
</g>
<!-- Admin::CategoriesController -->
<g id="node20" class="node"><title>Admin::CategoriesController</title>
<ellipse fill="none" stroke="black" cx="151" cy="-965.109" rx="149.907" ry="18.3848"/>
<text text-anchor="middle" x="151" y="-961.509" font-family="Times Roman,serif" font-size="14.00">Admin::CategoriesController</text>
</g>
<!-- Admin::UsersController -->
<g id="node21" class="node"><title>Admin::UsersController</title>
<ellipse fill="none" stroke="black" cx="155.839" cy="-1307.07" rx="123.951" ry="18.3848"/>
<text text-anchor="middle" x="155.839" y="-1303.47" font-family="Times Roman,serif" font-size="14.00">Admin::UsersController</text>
</g>
<!-- Admin::BaseController -->
<g id="node22" class="node"><title>Admin::BaseController</title>
<ellipse fill="none" stroke="black" cx="904.489" cy="-809.391" rx="120.915" ry="18.3848"/>
<text text-anchor="middle" x="904.489" y="-805.791" font-family="Times Roman,serif" font-size="14.00">Admin::BaseController</text>
</g>
<!-- Admin::BaseController&#45;&gt;Admin::DashboardController -->
<g id="edge28" class="edge"><title>Admin::BaseController&#45;&gt;Admin::DashboardController</title>
<path fill="none" stroke="black" d="M914.97,-828.149C930.932,-855.239 963.716,-905.436 1003.46,-936.224 1212.24,-1097.96 1518.3,-1193.56 1651.31,-1229.72"/>
</g>
<!-- Admin::BaseController&#45;&gt;Admin::SeoController -->
<g id="edge30" class="edge"><title>Admin::BaseController&#45;&gt;Admin::SeoController</title>
<path fill="none" stroke="black" d="M918.7,-827.898C959.03,-880.546 1071.42,-1028.21 1073.32,-1041.14 1084.31,-1116.03 1037.14,-1128.89 1016.81,-1201.81 1003.45,-1249.73 992.853,-1307.48 987.898,-1336.52"/>
</g>
<!-- Admin::BaseController&#45;&gt;Admin::SidebarController -->
<g id="edge32" class="edge"><title>Admin::BaseController&#45;&gt;Admin::SidebarController</title>
<path fill="none" stroke="black" d="M957.983,-826.019C1051.23,-855.003 1242.56,-914.471 1336.64,-943.715"/>
</g>
<!-- Admin::BaseController&#45;&gt;Admin::CacheController -->
<g id="edge34" class="edge"><title>Admin::BaseController&#45;&gt;Admin::CacheController</title>
<path fill="none" stroke="black" d="M1002.42,-798.512C1076.97,-787.672 1180.77,-766.971 1265.18,-729.018 1294.12,-716.005 1325.2,-697.351 1346.71,-683.621"/>
</g>
<!-- Admin::BaseController&#45;&gt;Admin::TextfiltersController -->
<g id="edge36" class="edge"><title>Admin::BaseController&#45;&gt;Admin::TextfiltersController</title>
<path fill="none" stroke="black" d="M902.003,-828.087C896.857,-861.195 882.566,-931.183 848.806,-979.389 824.824,-1013.63 594.72,-1184.02 517.655,-1240.62"/>
</g>
<!-- Admin::BaseController&#45;&gt;Admin::CategoriesController -->
<g id="edge38" class="edge"><title>Admin::BaseController&#45;&gt;Admin::CategoriesController</title>
<path fill="none" stroke="black" d="M849.905,-825.978C785.578,-845.083 675.237,-876.477 578.924,-897.042 469.124,-920.487 341.902,-939.731 254.893,-951.703"/>
</g>
<!-- Admin::BaseController&#45;&gt;Admin::UsersController -->
<g id="edge40" class="edge"><title>Admin::BaseController&#45;&gt;Admin::UsersController</title>
<path fill="none" stroke="black" d="M861.714,-826.764C794.857,-854.72 662.593,-913.282 559.608,-979.263 400.332,-1081.31 231.337,-1235.87 175.2,-1288.65"/>
</g>
<!-- Admin::ThemesController -->
<g id="node23" class="node"><title>Admin::ThemesController</title>
<ellipse fill="none" stroke="black" cx="481.985" cy="-882.777" rx="135.765" ry="18.3848"/>
<text text-anchor="middle" x="481.985" y="-879.177" font-family="Times Roman,serif" font-size="14.00">Admin::ThemesController</text>
</g>
<!-- Admin::BaseController&#45;&gt;Admin::ThemesController -->
<g id="edge44" class="edge"><title>Admin::BaseController&#45;&gt;Admin::ThemesController</title>
<path fill="none" stroke="black" d="M824.522,-823.281C750.599,-836.121 641.141,-855.133 565.964,-868.19"/>
</g>
<!-- Admin::ContentController -->
<g id="node24" class="node"><title>Admin::ContentController</title>
<ellipse fill="none" stroke="black" cx="1142.06" cy="-936.273" rx="137.179" ry="18.3848"/>
<text text-anchor="middle" x="1142.06" y="-932.673" font-family="Times Roman,serif" font-size="14.00">Admin::ContentController</text>
</g>
<!-- Admin::BaseController&#45;&gt;Admin::ContentController -->
<g id="edge46" class="edge"><title>Admin::BaseController&#45;&gt;Admin::ContentController</title>
<path fill="none" stroke="black" d="M938.023,-827.301C983.173,-851.415 1063.05,-894.077 1108.31,-918.249"/>
</g>
<!-- Admin::ResourcesController -->
<g id="node25" class="node"><title>Admin::ResourcesController</title>
<ellipse fill="none" stroke="black" cx="1164.41" cy="-1201.91" rx="145.872" ry="18.3848"/>
<text text-anchor="middle" x="1164.41" y="-1198.31" font-family="Times Roman,serif" font-size="14.00">Admin::ResourcesController</text>
</g>
<!-- Admin::BaseController&#45;&gt;Admin::ResourcesController -->
<g id="edge48" class="edge"><title>Admin::BaseController&#45;&gt;Admin::ResourcesController</title>
<path fill="none" stroke="black" d="M919.022,-827.805C949.216,-866.381 1020.33,-958.922 1073.32,-1041.14 1105.47,-1091.02 1138.72,-1152.77 1154.69,-1183.18"/>
</g>
<!-- Admin::PagesController -->
<g id="node26" class="node"><title>Admin::PagesController</title>
<ellipse fill="none" stroke="black" cx="728.781" cy="-1317.43" rx="125.865" ry="18.3848"/>
<text text-anchor="middle" x="728.781" y="-1313.83" font-family="Times Roman,serif" font-size="14.00">Admin::PagesController</text>
</g>
<!-- Admin::BaseController&#45;&gt;Admin::PagesController -->
<g id="edge50" class="edge"><title>Admin::BaseController&#45;&gt;Admin::PagesController</title>
<path fill="none" stroke="black" d="M901.412,-827.986C895.38,-860.639 879.8,-929.543 848.806,-979.389 828.224,-1012.49 804.83,-1006.54 786.135,-1040.74 738.136,-1128.56 730.215,-1252.12 728.978,-1298.69"/>
</g>
<!-- Admin::PostTypesController -->
<g id="node27" class="node"><title>Admin::PostTypesController</title>
<ellipse fill="none" stroke="black" cx="1118.58" cy="-728.952" rx="145.163" ry="18.3848"/>
<text text-anchor="middle" x="1118.58" y="-725.352" font-family="Times Roman,serif" font-size="14.00">Admin::PostTypesController</text>
</g>
<!-- Admin::BaseController&#45;&gt;Admin::PostTypesController -->
<g id="edge52" class="edge"><title>Admin::BaseController&#45;&gt;Admin::PostTypesController</title>
<path fill="none" stroke="black" d="M950.154,-792.234C986.013,-778.761 1035.75,-760.072 1071.87,-746.5"/>
</g>
<!-- Admin::TagsController -->
<g id="node28" class="node"><title>Admin::TagsController</title>
<ellipse fill="none" stroke="black" cx="1380.83" cy="-1334.26" rx="118.794" ry="18.3848"/>
<text text-anchor="middle" x="1380.83" y="-1330.66" font-family="Times Roman,serif" font-size="14.00">Admin::TagsController</text>
</g>
<!-- Admin::BaseController&#45;&gt;Admin::TagsController -->
<g id="edge54" class="edge"><title>Admin::BaseController&#45;&gt;Admin::TagsController</title>
<path fill="none" stroke="black" d="M917.205,-827.946C935.102,-853.501 969.36,-900.431 1003.46,-936.224 1128.3,-1067.27 1199.64,-1060.11 1312.01,-1202 1340.77,-1238.33 1362.96,-1288.52 1373.7,-1315.42"/>
</g>
<!-- Admin::FeedbackController -->
<g id="node29" class="node"><title>Admin::FeedbackController</title>
<ellipse fill="none" stroke="black" cx="704.207" cy="-979.326" rx="142.836" ry="18.3848"/>
<text text-anchor="middle" x="704.207" y="-975.726" font-family="Times Roman,serif" font-size="14.00">Admin::FeedbackController</text>
</g>
<!-- Admin::BaseController&#45;&gt;Admin::FeedbackController -->
<g id="edge56" class="edge"><title>Admin::BaseController&#45;&gt;Admin::FeedbackController</title>
<path fill="none" stroke="black" d="M882.674,-827.901C844.148,-860.589 764.502,-928.167 725.995,-960.84"/>
</g>
<!-- Admin::SettingsController -->
<g id="node30" class="node"><title>Admin::SettingsController</title>
<ellipse fill="none" stroke="black" cx="704.248" cy="-703.888" rx="137.886" ry="18.3848"/>
<text text-anchor="middle" x="704.248" y="-700.288" font-family="Times Roman,serif" font-size="14.00">Admin::SettingsController</text>
</g>
<!-- Admin::BaseController&#45;&gt;Admin::SettingsController -->
<g id="edge58" class="edge"><title>Admin::BaseController&#45;&gt;Admin::SettingsController</title>
<path fill="none" stroke="black" d="M870.521,-791.494C833.699,-772.094 775.269,-741.308 738.383,-721.873"/>
</g>
<!-- Admin::ProfilesController -->
<g id="node31" class="node"><title>Admin::ProfilesController</title>
<ellipse fill="none" stroke="black" cx="1709.87" cy="-824.698" rx="132.936" ry="18.3848"/>
<text text-anchor="middle" x="1709.87" y="-821.098" font-family="Times Roman,serif" font-size="14.00">Admin::ProfilesController</text>
</g>
<!-- Admin::BaseController&#45;&gt;Admin::ProfilesController -->
<g id="edge60" class="edge"><title>Admin::BaseController&#45;&gt;Admin::ProfilesController</title>
<path fill="none" stroke="black" d="M1024.63,-811.675C1172.95,-814.494 1424.37,-819.272 1577.93,-822.191"/>
</g>
<!-- Admin::RedirectsController -->
<g id="node32" class="node"><title>Admin::RedirectsController</title>
<ellipse fill="none" stroke="black" cx="929.728" cy="-1040.94" rx="142.128" ry="18.3848"/>
<text text-anchor="middle" x="929.728" y="-1037.34" font-family="Times Roman,serif" font-size="14.00">Admin::RedirectsController</text>
</g>
<!-- Admin::BaseController&#45;&gt;Admin::RedirectsController -->
<g id="edge62" class="edge"><title>Admin::BaseController&#45;&gt;Admin::RedirectsController</title>
<path fill="none" stroke="black" d="M906.512,-827.949C911.238,-871.304 922.96,-978.851 927.696,-1022.29"/>
</g>
<!-- GroupingController&#45;&gt;CategoriesController -->
<g id="edge16" class="edge"><title>GroupingController&#45;&gt;CategoriesController</title>
<path fill="none" stroke="black" d="M712.918,-29.0154C747.434,-27.4993 786.076,-25.802 821.062,-24.2653"/>
</g>
<!-- GroupingController&#45;&gt;TagsController -->
<g id="edge24" class="edge"><title>GroupingController&#45;&gt;TagsController</title>
<path fill="none" stroke="black" d="M506.291,-35.4293C432.239,-36.7944 334.256,-38.6006 265.811,-39.8623"/>
</g>
<!-- ApplicationController -->
<g id="node34" class="node"><title>ApplicationController</title>
<ellipse fill="none" stroke="black" cx="904.699" cy="-581.877" rx="113.844" ry="18.3848"/>
<text text-anchor="middle" x="904.699" y="-578.277" font-family="Times Roman,serif" font-size="14.00">ApplicationController</text>
</g>
<!-- ApplicationController&#45;&gt;XmlController -->
<g id="edge2" class="edge"><title>ApplicationController&#45;&gt;XmlController</title>
<path fill="none" stroke="black" d="M903.252,-562.991C899.674,-516.312 890.447,-395.924 886.88,-349.376"/>
</g>
<!-- ApplicationController&#45;&gt;SetupController -->
<g id="edge8" class="edge"><title>ApplicationController&#45;&gt;SetupController</title>
<path fill="none" stroke="black" d="M794.639,-586.816C724.543,-589.962 635.002,-593.98 569.84,-596.904"/>
</g>
<!-- ApplicationController&#45;&gt;AccountsController -->
<g id="edge10" class="edge"><title>ApplicationController&#45;&gt;AccountsController</title>
<path fill="none" stroke="black" d="M964.08,-566.037C997.993,-556.991 1040.32,-545.7 1073.98,-536.722"/>
</g>
<!-- ApplicationController&#45;&gt;TextfilterController -->
<g id="edge14" class="edge"><title>ApplicationController&#45;&gt;TextfilterController</title>
<path fill="none" stroke="black" d="M917.97,-563.207C955.38,-510.579 1061.38,-361.457 1098.65,-309.02"/>
</g>
<!-- ApplicationController&#45;&gt;ContentController -->
<g id="edge18" class="edge"><title>ApplicationController&#45;&gt;ContentController</title>
<path fill="none" stroke="black" d="M881.292,-563.56C842.633,-533.31 765.889,-473.258 727.328,-443.084"/>
</g>
<!-- ApplicationController&#45;&gt;FeedbackController -->
<g id="edge26" class="edge"><title>ApplicationController&#45;&gt;FeedbackController</title>
<path fill="none" stroke="black" d="M939.367,-564.129C963.589,-551.837 996.744,-535.224 1026.24,-521.187 1136.03,-468.933 1267.9,-412.342 1333.19,-384.725"/>
</g>
<!-- ApplicationController&#45;&gt;Admin::BaseController -->
<g id="edge42" class="edge"><title>ApplicationController&#45;&gt;Admin::BaseController</title>
<path fill="none" stroke="black" d="M904.682,-600.495C904.643,-643.264 904.546,-748.125 904.506,-790.835"/>
</g>
</g>
</svg>
