<?xml version="1.0" encoding="UTF-8" standalone="no"?>
<!DOCTYPE svg PUBLIC "-//W3C//DTD SVG 1.1//EN"
 "http://www.w3.org/Graphics/SVG/1.1/DTD/svg11.dtd">
<!-- Generated by graphviz version 2.26.3 (20100126.1600)
 -->
<!-- Title: models_diagram Pages: 1 -->
<svg width="2620pt" height="590pt"
 viewBox="0.00 0.00 2620.00 590.00" xmlns="http://www.w3.org/2000/svg" xmlns:xlink="http://www.w3.org/1999/xlink">
<g id="graph1" class="graph" transform="scale(1 1) rotate(0) translate(4 586)">
<title>models_diagram</title>
<polygon fill="white" stroke="white" points="-4,5 -4,-586 2617,-586 2617,5 -4,5"/>
<!-- _diagram_info -->
<g id="node1" class="node"><title>_diagram_info</title>
<text text-anchor="start" x="286" y="-565.8" font-family="Times Roman,serif" font-size="13.00">Models diagram</text>
<text text-anchor="start" x="286" y="-548.8" font-family="Times Roman,serif" font-size="13.00">Date: Jun 20 2014 &#45; 18:29</text>
<text text-anchor="start" x="286" y="-531.8" font-family="Times Roman,serif" font-size="13.00">Migration version: 104</text>
<text text-anchor="start" x="286" y="-514.8" font-family="Times Roman,serif" font-size="13.00">Generated by RailRoady 1.1.1</text>
<text text-anchor="start" x="286" y="-497.8" font-family="Times Roman,serif" font-size="13.00">http://railroady.prestonlee.com</text>
</g>
<!-- Resource -->
<g id="node2" class="node"><title>Resource</title>
<ellipse fill="none" stroke="black" cx="137" cy="-95" rx="55.8614" ry="18.3848"/>
<text text-anchor="middle" x="137" y="-91.4" font-family="Times Roman,serif" font-size="14.00">Resource</text>
</g>
<!-- Feedback -->
<g id="node3" class="node"><title>Feedback</title>
<ellipse fill="none" stroke="black" cx="622" cy="-95" rx="56.0679" ry="18.3848"/>
<text text-anchor="middle" x="622" y="-91.4" font-family="Times Roman,serif" font-size="14.00">Feedback</text>
</g>
<!-- Comment -->
<g id="node6" class="node"><title>Comment</title>
<ellipse fill="none" stroke="black" cx="404" cy="-19" rx="58.1882" ry="18.3848"/>
<text text-anchor="middle" x="404" y="-15.4" font-family="Times Roman,serif" font-size="14.00">Comment</text>
</g>
<!-- Feedback&#45;&gt;Comment -->
<g id="edge12" class="edge"><title>Feedback&#45;&gt;Comment</title>
<path fill="none" stroke="black" d="M583.277,-81.5003C543.88,-67.7654 483.129,-46.5861 443.465,-32.7586"/>
</g>
<!-- Trackback -->
<g id="node15" class="node"><title>Trackback</title>
<ellipse fill="none" stroke="black" cx="706" cy="-19" rx="58.8978" ry="18.3848"/>
<text text-anchor="middle" x="706" y="-15.4" font-family="Times Roman,serif" font-size="14.00">Trackback</text>
</g>
<!-- Feedback&#45;&gt;Trackback -->
<g id="edge38" class="edge"><title>Feedback&#45;&gt;Trackback</title>
<path fill="none" stroke="black" d="M641.482,-77.373C655.053,-65.0951 673.076,-48.7884 686.623,-36.5314"/>
</g>
<!-- Redirection -->
<g id="node4" class="node"><title>Redirection</title>
<ellipse fill="none" stroke="black" cx="296" cy="-263" rx="65.9683" ry="18.3848"/>
<text text-anchor="middle" x="296" y="-259.4" font-family="Times Roman,serif" font-size="14.00">Redirection</text>
</g>
<!-- Right -->
<g id="node5" class="node"><title>Right</title>
<ellipse fill="none" stroke="black" cx="103" cy="-431" rx="36.977" ry="18.3848"/>
<text text-anchor="middle" x="103" y="-427.4" font-family="Times Roman,serif" font-size="14.00">Right</text>
</g>
<!-- Profile -->
<g id="node23" class="node"><title>Profile</title>
<ellipse fill="none" stroke="black" cx="78" cy="-355" rx="41.9273" ry="18.3848"/>
<text text-anchor="middle" x="78" y="-351.4" font-family="Times Roman,serif" font-size="14.00">Profile</text>
</g>
<!-- Right&#45;&gt;Profile -->
<g id="edge8" class="edge"><title>Right&#45;&gt;Profile</title>
<path fill="none" stroke="#c8f2b4" d="M93.7398,-402.849C91.624,-396.417 89.3753,-389.581 87.2596,-383.149"/>
<polygon fill="#c8f2b4" stroke="#c8f2b4" points="93.8234,-403.103 92.6735,-414.009 95.3858,-407.853 96.9482,-412.603 96.9482,-412.603 96.9482,-412.603 95.3858,-407.853 101.223,-411.196 93.8234,-403.103 93.8234,-403.103"/>
<polygon fill="#c8f2b4" stroke="#c8f2b4" points="87.2075,-382.991 88.3574,-372.085 85.6451,-378.241 84.0827,-373.491 84.0827,-373.491 84.0827,-373.491 85.6451,-378.241 79.8081,-374.898 87.2075,-382.991 87.2075,-382.991"/>
</g>
<!-- Category -->
<g id="node7" class="node"><title>Category</title>
<ellipse fill="none" stroke="black" cx="972" cy="-263" rx="56.0679" ry="18.3848"/>
<text text-anchor="middle" x="972" y="-259.4" font-family="Times Roman,serif" font-size="14.00">Category</text>
</g>
<!-- Category&#45;&gt;Category -->
<g id="edge14" class="edge"><title>Category&#45;&gt;Category</title>
<path fill="none" stroke="#934430" d="M1031.92,-269.381C1040.35,-268.341 1046,-266.215 1046,-263 1046,-260.078 1041.33,-258.054 1034.15,-256.93"/>
<ellipse fill="none" stroke="#934430" cx="1027.86" cy="-269.7" rx="4" ry="4"/>
<polygon fill="#934430" stroke="#934430" points="1033.83,-256.9 1024.28,-251.505 1028.85,-256.443 1023.87,-255.986 1023.87,-255.986 1023.87,-255.986 1028.85,-256.443 1023.46,-260.467 1033.83,-256.9 1033.83,-256.9"/>
<text text-anchor="middle" x="1073.5" y="-259.4" font-family="Times Roman,serif" font-size="14.00">children</text>
</g>
<!-- Article -->
<g id="node20" class="node"><title>Article</title>
<ellipse fill="none" stroke="black" cx="714" cy="-187" rx="43.1335" ry="18.3848"/>
<text text-anchor="middle" x="714" y="-183.4" font-family="Times Roman,serif" font-size="14.00">Article</text>
</g>
<!-- Category&#45;&gt;Article -->
<g id="edge18" class="edge"><title>Category&#45;&gt;Article</title>
<path fill="none" stroke="#654723" d="M920.209,-247.744C873.188,-233.893 804.514,-213.663 759.546,-200.417"/>
<polygon fill="#654723" stroke="#654723" points="920.381,-247.794 928.702,-254.937 925.177,-249.207 929.974,-250.62 929.974,-250.62 929.974,-250.62 925.177,-249.207 931.245,-246.304 920.381,-247.794 920.381,-247.794"/>
<polygon fill="#654723" stroke="#654723" points="759.361,-200.362 751.041,-193.22 754.565,-198.949 749.769,-197.537 749.769,-197.537 749.769,-197.537 754.565,-198.949 748.497,-201.853 759.361,-200.362 759.361,-200.362"/>
</g>
<!-- Categorization -->
<g id="node24" class="node"><title>Categorization</title>
<ellipse fill="none" stroke="black" cx="1267" cy="-95" rx="84.1457" ry="18.3848"/>
<text text-anchor="middle" x="1267" y="-91.4" font-family="Times Roman,serif" font-size="14.00">Categorization</text>
</g>
<!-- Category&#45;&gt;Categorization -->
<g id="edge16" class="edge"><title>Category&#45;&gt;Categorization</title>
<path fill="none" stroke="#b07d9b" d="M1007.47,-242.802C1062.99,-211.184 1170.03,-150.225 1227.78,-117.338"/>
<ellipse fill="none" stroke="#b07d9b" cx="1003.76" cy="-244.912" rx="4.00002" ry="4.00002"/>
<polygon fill="#b07d9b" stroke="#b07d9b" points="1227.92,-117.258 1238.83,-116.22 1232.26,-114.784 1236.61,-112.309 1236.61,-112.309 1236.61,-112.309 1232.26,-114.784 1234.38,-108.399 1227.92,-117.258 1227.92,-117.258"/>
</g>
<!-- ConfigManager -->
<g id="node8" class="node"><title>ConfigManager</title>
<polygon fill="none" stroke="black" stroke-dasharray="1,5" points="1044,-553 924,-553 924,-517 1044,-517 1044,-553"/>
<text text-anchor="middle" x="984" y="-531.4" font-family="Times Roman,serif" font-size="14.00">ConfigManager</text>
</g>
<!-- Redirect -->
<g id="node9" class="node"><title>Redirect</title>
<ellipse fill="none" stroke="black" cx="531" cy="-431" rx="51.1176" ry="18.3848"/>
<text text-anchor="middle" x="531" y="-427.4" font-family="Times Roman,serif" font-size="14.00">Redirect</text>
</g>
<!-- Redirect&#45;&gt;Redirection -->
<g id="edge22" class="edge"><title>Redirect&#45;&gt;Redirection</title>
<path fill="none" stroke="#daa19f" d="M486.479,-415.08C441.495,-397.179 372.213,-364.418 326,-318 318.288,-310.253 312.007,-300.113 307.223,-290.651"/>
<ellipse fill="none" stroke="#daa19f" cx="490.308" cy="-416.579" rx="4.00001" ry="4.00001"/>
<polygon fill="#daa19f" stroke="#daa19f" points="307.191,-290.582 307.013,-279.618 305.065,-286.056 302.94,-281.53 302.94,-281.53 302.94,-281.53 305.065,-286.056 298.867,-283.443 307.191,-290.582 307.191,-290.582"/>
</g>
<!-- Content -->
<g id="node17" class="node"><title>Content</title>
<ellipse fill="none" stroke="black" cx="637" cy="-355" rx="51.1176" ry="18.3848"/>
<text text-anchor="middle" x="637" y="-351.4" font-family="Times Roman,serif" font-size="14.00">Content</text>
</g>
<!-- Redirect&#45;&gt;Content -->
<g id="edge24" class="edge"><title>Redirect&#45;&gt;Content</title>
<path fill="none" stroke="#3c3937" d="M562.521,-408.4C576.147,-398.631 592.053,-387.226 605.659,-377.471"/>
<polygon fill="#3c3937" stroke="#3c3937" points="562.389,-408.495 551.64,-410.664 558.326,-411.408 554.262,-414.321 554.262,-414.321 554.262,-414.321 558.326,-411.408 556.884,-417.979 562.389,-408.495 562.389,-408.495"/>
<polygon fill="#3c3937" stroke="#3c3937" points="605.665,-377.467 616.414,-375.297 609.729,-374.553 613.792,-371.64 613.792,-371.64 613.792,-371.64 609.729,-374.553 611.17,-367.982 605.665,-377.467 605.665,-377.467"/>
</g>
<!-- Theme -->
<g id="node10" class="node"><title>Theme</title>
<polygon fill="none" stroke="black" points="1355,-449 1291,-449 1291,-413 1355,-413 1355,-449"/>
<text text-anchor="middle" x="1323" y="-427.4" font-family="Times Roman,serif" font-size="14.00">Theme</text>
</g>
<!-- Sidebar -->
<g id="node11" class="node"><title>Sidebar</title>
<ellipse fill="none" stroke="black" cx="282" cy="-431" rx="48.0833" ry="18.3848"/>
<text text-anchor="middle" x="282" y="-427.4" font-family="Times Roman,serif" font-size="14.00">Sidebar</text>
</g>
<!-- TextFilter -->
<g id="node12" class="node"><title>TextFilter</title>
<ellipse fill="none" stroke="black" cx="405" cy="-431" rx="56.7776" ry="18.3848"/>
<text text-anchor="middle" x="405" y="-427.4" font-family="Times Roman,serif" font-size="14.00">TextFilter</text>
</g>
<!-- WebNotifier -->
<g id="node13" class="node"><title>WebNotifier</title>
<polygon fill="none" stroke="black" points="1612,-449 1514,-449 1514,-413 1612,-413 1612,-449"/>
<text text-anchor="middle" x="1563" y="-427.4" font-family="Times Roman,serif" font-size="14.00">WebNotifier</text>
</g>
<!-- NotificationMailer -->
<g id="node14" class="node"><title>NotificationMailer</title>
<polygon fill="none" stroke="black" points="1904,-449 1768,-449 1768,-413 1904,-413 1904,-449"/>
<text text-anchor="middle" x="1836" y="-427.4" font-family="Times Roman,serif" font-size="14.00">NotificationMailer</text>
</g>
<!-- Article::States -->
<g id="node16" class="node"><title>Article::States</title>
<polygon fill="none" stroke="black" stroke-dasharray="1,5" points="2070,-553 1956,-553 1956,-517 2070,-517 2070,-553"/>
<text text-anchor="middle" x="2013" y="-531.4" font-family="Times Roman,serif" font-size="14.00">Article::States</text>
</g>
<!-- Content&#45;&gt;Feedback -->
<g id="edge4" class="edge"><title>Content&#45;&gt;Feedback</title>
<path fill="none" stroke="black" d="M641.462,-336.429C643.242,-325.532 644.036,-311.657 640,-300 639.566,-298.748 522.434,-151.252 522,-150 519.383,-142.44 517.429,-138.565 522,-132 525.689,-126.702 555.051,-116.191 581.012,-107.722"/>
</g>
<!-- Content&#45;&gt;Redirection -->
<g id="edge44" class="edge"><title>Content&#45;&gt;Redirection</title>
<path fill="none" stroke="#d9ee36" d="M579.44,-349.719C514.892,-343.276 414.586,-331.55 379,-318 359.645,-310.63 340.226,-298.111 325.043,-286.878"/>
<ellipse fill="none" stroke="#d9ee36" cx="583.538" cy="-350.124" rx="4" ry="4"/>
<polygon fill="#d9ee36" stroke="#d9ee36" points="325.029,-286.866 319.797,-277.229 321.05,-283.838 317.071,-280.81 317.071,-280.81 317.071,-280.81 321.05,-283.838 314.346,-284.39 325.029,-286.866 325.029,-286.866"/>
</g>
<!-- Notification -->
<g id="node18" class="node"><title>Notification</title>
<ellipse fill="none" stroke="black" cx="390" cy="-187" rx="67.1751" ry="18.3848"/>
<text text-anchor="middle" x="390" y="-183.4" font-family="Times Roman,serif" font-size="14.00">Notification</text>
</g>
<!-- Content&#45;&gt;Notification -->
<g id="edge40" class="edge"><title>Content&#45;&gt;Notification</title>
<path fill="none" stroke="#f50141" d="M577.909,-352.527C520.412,-348.856 438.518,-339.852 416,-318 388.88,-291.682 385.753,-245.777 387.062,-215.892"/>
<ellipse fill="none" stroke="#f50141" cx="582.213" cy="-352.789" rx="4" ry="4"/>
<polygon fill="#f50141" stroke="#f50141" points="387.077,-215.653 392.199,-205.957 387.393,-210.663 387.708,-205.673 387.708,-205.673 387.708,-205.673 387.393,-210.663 383.217,-205.389 387.077,-215.653 387.077,-215.653"/>
</g>
<!-- Trigger -->
<g id="node19" class="node"><title>Trigger</title>
<ellipse fill="none" stroke="black" cx="1120" cy="-95" rx="44.7575" ry="18.3848"/>
<text text-anchor="middle" x="1120" y="-91.4" font-family="Times Roman,serif" font-size="14.00">Trigger</text>
</g>
<!-- Content&#45;&gt;Trigger -->
<g id="edge46" class="edge"><title>Content&#45;&gt;Trigger</title>
<path fill="none" stroke="#e452cd" d="M675.021,-336.627C686.915,-330.776 700.051,-324.21 712,-318 851.159,-245.685 1014.08,-154.698 1084.55,-115.027"/>
<ellipse fill="none" stroke="#e452cd" cx="671.39" cy="-338.406" rx="4.00002" ry="4.00002"/>
<polygon fill="#e452cd" stroke="#e452cd" points="1084.76,-114.909 1095.68,-113.921 1089.12,-112.455 1093.48,-110.001 1093.48,-110.001 1093.48,-110.001 1089.12,-112.455 1091.27,-106.08 1084.76,-114.909 1084.76,-114.909"/>
</g>
<!-- Content&#45;&gt;Article -->
<g id="edge76" class="edge"><title>Content&#45;&gt;Article</title>
<path fill="none" stroke="black" d="M663.679,-339.01C682.03,-326.236 704.704,-306.45 714,-282 723.554,-256.871 720.942,-225.228 717.783,-205.554"/>
</g>
<!-- User -->
<g id="node26" class="node"><title>User</title>
<ellipse fill="none" stroke="black" cx="452" cy="-263" rx="33.9411" ry="18.3848"/>
<text text-anchor="middle" x="452" y="-259.4" font-family="Times Roman,serif" font-size="14.00">User</text>
</g>
<!-- Content&#45;&gt;User -->
<g id="edge42" class="edge"><title>Content&#45;&gt;User</title>
<path fill="none" stroke="#25ad67" d="M582.164,-344.005C568.112,-341.287 553.011,-338.454 539,-336 513.521,-331.538 440.817,-337.654 424,-318 416.195,-308.878 420.586,-297.205 427.992,-286.961"/>
<polygon fill="#25ad67" stroke="#25ad67" points="582.363,-344.044 591.318,-350.373 587.271,-345 592.179,-345.956 592.179,-345.956 592.179,-345.956 587.271,-345 593.039,-341.539 582.363,-344.044 582.363,-344.044"/>
<polygon fill="#25ad67" stroke="#25ad67" points="428.069,-286.867 437.885,-281.979 431.236,-282.998 434.403,-279.129 434.403,-279.129 434.403,-279.129 431.236,-282.998 430.921,-276.279 428.069,-286.867 428.069,-286.867"/>
<text text-anchor="middle" x="466.5" y="-305.4" font-family="Times Roman,serif" font-size="14.00">notify_users</text>
</g>
<!-- Page -->
<g id="node27" class="node"><title>Page</title>
<ellipse fill="none" stroke="black" cx="670" cy="-263" rx="34.8574" ry="18.3848"/>
<text text-anchor="middle" x="670" y="-259.4" font-family="Times Roman,serif" font-size="14.00">Page</text>
</g>
<!-- Content&#45;&gt;Page -->
<g id="edge96" class="edge"><title>Content&#45;&gt;Page</title>
<path fill="none" stroke="black" d="M653.457,-337.411C657.957,-331.634 662.325,-324.912 665,-318 669.464,-306.465 670.699,-292.59 670.825,-281.661"/>
</g>
<!-- Article&#45;&gt;Resource -->
<g id="edge62" class="edge"><title>Article&#45;&gt;Resource</title>
<path fill="none" stroke="#787266" d="M663.282,-183.717C595.105,-178.828 470.292,-168.2 365,-150 304.256,-139.5 235.62,-122.184 189.67,-109.786"/>
<ellipse fill="none" stroke="#787266" cx="667.32" cy="-184.003" rx="4" ry="4"/>
<polygon fill="#787266" stroke="#787266" points="189.584,-109.763 181.113,-102.798 184.759,-108.452 179.934,-107.141 179.934,-107.141 179.934,-107.141 184.759,-108.452 178.754,-111.483 189.584,-109.763 189.584,-109.763"/>
</g>
<!-- Article&#45;&gt;Feedback -->
<g id="edge60" class="edge"><title>Article&#45;&gt;Feedback</title>
<path fill="none" stroke="#3c8d35" d="M694.995,-162.934C686.762,-153.004 676.781,-141.597 667,-132 662.452,-127.537 657.417,-123.03 652.41,-118.771"/>
<ellipse fill="none" stroke="#3c8d35" cx="697.601" cy="-166.118" rx="4.00002" ry="4.00002"/>
<polygon fill="#3c8d35" stroke="#3c8d35" points="652.336,-118.709 647.513,-108.861 648.488,-115.517 644.64,-112.324 644.64,-112.324 644.64,-112.324 648.488,-115.517 641.766,-115.787 652.336,-118.709 652.336,-118.709"/>
</g>
<!-- Article&#45;&gt;Feedback -->
<g id="edge72" class="edge"><title>Article&#45;&gt;Feedback</title>
<path fill="none" stroke="#2b852b" d="M663.115,-183.897C614.325,-179.734 545.686,-170.353 529,-150 523.928,-143.813 524.509,-138.62 529,-132 534.234,-124.285 551.417,-116.538 569.614,-110.14"/>
<ellipse fill="none" stroke="#2b852b" cx="667.383" cy="-184.244" rx="4" ry="4"/>
<polygon fill="#2b852b" stroke="#2b852b" points="569.687,-110.116 580.601,-111.19 574.426,-108.52 579.165,-106.925 579.165,-106.925 579.165,-106.925 574.426,-108.52 577.729,-102.66 569.687,-110.116 569.687,-110.116"/>
<text text-anchor="middle" x="596" y="-137.4" font-family="Times Roman,serif" font-size="14.00">published_feedback</text>
</g>
<!-- Article&#45;&gt;Comment -->
<g id="edge66" class="edge"><title>Article&#45;&gt;Comment</title>
<path fill="none" stroke="#4ee492" d="M663.277,-184.182C578.038,-179.004 413.331,-166.934 393,-150 363.726,-125.616 377.307,-77.33 390.301,-46.6824"/>
<ellipse fill="none" stroke="#4ee492" cx="667.278" cy="-184.422" rx="4" ry="4"/>
<polygon fill="#4ee492" stroke="#4ee492" points="390.367,-46.5353 398.553,-39.2393 392.406,-41.9698 394.445,-37.4044 394.445,-37.4044 394.445,-37.4044 392.406,-41.9698 390.336,-35.5695 390.367,-46.5353 390.367,-46.5353"/>
</g>
<!-- Article&#45;&gt;Comment -->
<g id="edge68" class="edge"><title>Article&#45;&gt;Comment</title>
<path fill="none" stroke="#e8f904" d="M663.643,-182.144C586.286,-173.533 443.889,-152.739 413,-114 398.312,-95.5791 397.165,-68.3079 399.048,-47.7038"/>
<ellipse fill="none" stroke="#e8f904" cx="667.855" cy="-182.603" rx="4" ry="4"/>
<polygon fill="#e8f904" stroke="#e8f904" points="399.066,-47.5485 404.721,-38.1531 399.66,-42.5839 400.253,-37.6192 400.253,-37.6192 400.253,-37.6192 399.66,-42.5839 395.785,-37.0853 399.066,-47.5485 399.066,-47.5485"/>
<text text-anchor="middle" x="485" y="-91.4" font-family="Times Roman,serif" font-size="14.00">published_comments</text>
</g>
<!-- Article&#45;&gt;Trackback -->
<g id="edge58" class="edge"><title>Article&#45;&gt;Trackback</title>
<path fill="none" stroke="#435ab5" d="M712.725,-160.225C711.266,-129.587 708.885,-79.5873 707.383,-48.0338"/>
<ellipse fill="none" stroke="#435ab5" cx="712.923" cy="-164.384" rx="4" ry="4"/>
<polygon fill="#435ab5" stroke="#435ab5" points="707.366,-47.6929 711.386,-37.4902 707.129,-42.6986 706.891,-37.7042 706.891,-37.7042 706.891,-37.7042 707.129,-42.6986 702.396,-37.9183 707.366,-47.6929 707.366,-47.6929"/>
</g>
<!-- Article&#45;&gt;Trackback -->
<g id="edge70" class="edge"><title>Article&#45;&gt;Trackback</title>
<path fill="none" stroke="#2aa20b" d="M723.685,-160.517C724.639,-157.02 725.454,-153.452 726,-150 732.53,-108.697 732.504,-96.4749 722,-56 721.217,-52.9813 720.221,-49.8924 719.111,-46.8492"/>
<ellipse fill="none" stroke="#2aa20b" cx="722.434" cy="-164.63" rx="4.00001" ry="4.00001"/>
<polygon fill="#2aa20b" stroke="#2aa20b" points="719.049,-46.6946 719.466,-35.7366 717.172,-42.0602 715.295,-37.4258 715.295,-37.4258 715.295,-37.4258 717.172,-42.0602 711.124,-39.1151 719.049,-46.6946 719.049,-46.6946"/>
<text text-anchor="middle" x="804.5" y="-91.4" font-family="Times Roman,serif" font-size="14.00">published_trackbacks</text>
</g>
<!-- Article&#45;&gt;Trigger -->
<g id="edge54" class="edge"><title>Article&#45;&gt;Trigger</title>
<path fill="none" stroke="#fb17a7" d="M759.954,-176.251C790.823,-168.976 832.395,-159.075 869,-150 900.179,-142.27 907.493,-138.264 939,-132 994.914,-120.884 1010.62,-127.527 1066,-114 1069.8,-113.071 1073.71,-111.979 1077.61,-110.795"/>
<ellipse fill="none" stroke="#fb17a7" cx="755.84" cy="-177.219" rx="4.00001" ry="4.00001"/>
<polygon fill="#fb17a7" stroke="#fb17a7" points="1077.67,-110.775 1088.57,-111.988 1082.43,-109.24 1087.18,-107.705 1087.18,-107.705 1087.18,-107.705 1082.43,-109.24 1085.8,-103.423 1077.67,-110.775 1077.67,-110.775"/>
</g>
<!-- Article&#45;&gt;Categorization -->
<g id="edge64" class="edge"><title>Article&#45;&gt;Categorization</title>
<path fill="none" stroke="#48fea2" d="M763.129,-179.931C847.391,-167.644 1024.82,-141.063 1174,-114 1181.22,-112.691 1188.73,-111.263 1196.23,-109.797"/>
<ellipse fill="none" stroke="#48fea2" cx="758.984" cy="-180.534" rx="4.00001" ry="4.00001"/>
<polygon fill="#48fea2" stroke="#48fea2" points="1196.23,-109.796 1206.92,-112.269 1201.14,-108.825 1206.04,-107.854 1206.04,-107.854 1206.04,-107.854 1201.14,-108.825 1205.17,-103.44 1196.23,-109.796 1196.23,-109.796"/>
</g>
<!-- Ping -->
<g id="node29" class="node"><title>Ping</title>
<ellipse fill="none" stroke="black" cx="1024" cy="-95" rx="33.234" ry="18.3848"/>
<text text-anchor="middle" x="1024" y="-91.4" font-family="Times Roman,serif" font-size="14.00">Ping</text>
</g>
<!-- Article&#45;&gt;Ping -->
<g id="edge56" class="edge"><title>Article&#45;&gt;Ping</title>
<path fill="none" stroke="#a9669a" d="M754.817,-172.367C789.41,-160.348 840.503,-143.492 886,-132 928.088,-121.369 940.594,-127.04 982,-114 984.56,-113.194 987.169,-112.273 989.772,-111.281"/>
<ellipse fill="none" stroke="#a9669a" cx="751.038" cy="-173.687" rx="4.00001" ry="4.00001"/>
<polygon fill="#a9669a" stroke="#a9669a" points="989.817,-111.263 1000.78,-111.619 994.441,-109.36 999.065,-107.458 999.065,-107.458 999.065,-107.458 994.441,-109.36 997.352,-103.296 989.817,-111.263 989.817,-111.263"/>
</g>
<!-- Tag -->
<g id="node32" class="node"><title>Tag</title>
<ellipse fill="none" stroke="black" cx="945" cy="-95" rx="27.7881" ry="18.3848"/>
<text text-anchor="middle" x="945" y="-91.4" font-family="Times Roman,serif" font-size="14.00">Tag</text>
</g>
<!-- Article&#45;&gt;Tag -->
<g id="edge74" class="edge"><title>Article&#45;&gt;Tag</title>
<path fill="none" stroke="#c0df85" d="M744.475,-165.159C763.694,-151.761 786.908,-136.363 798,-132 842.062,-114.669 857.73,-127.87 903,-114 906.393,-112.96 909.871,-111.711 913.302,-110.355"/>
<polygon fill="#c0df85" stroke="#c0df85" points="744.44,-165.184 733.67,-167.251 740.349,-168.058 736.258,-170.933 736.258,-170.933 736.258,-170.933 740.349,-168.058 738.845,-174.615 744.44,-165.184 744.44,-165.184"/>
<polygon fill="#c0df85" stroke="#c0df85" points="913.539,-110.255 924.502,-110.482 918.14,-108.298 922.741,-106.341 922.741,-106.341 922.741,-106.341 918.14,-108.298 920.979,-102.2 913.539,-110.255 913.539,-110.255"/>
</g>
<!-- PostType -->
<g id="node21" class="node"><title>PostType</title>
<ellipse fill="none" stroke="black" cx="730" cy="-431" rx="53.9477" ry="18.3848"/>
<text text-anchor="middle" x="730" y="-427.4" font-family="Times Roman,serif" font-size="14.00">PostType</text>
</g>
<!-- PageCache -->
<g id="node22" class="node"><title>PageCache</title>
<polygon fill="none" stroke="black" points="1465,-449 1373,-449 1373,-413 1465,-413 1465,-449"/>
<text text-anchor="middle" x="1419" y="-427.4" font-family="Times Roman,serif" font-size="14.00">PageCache</text>
</g>
<!-- EmailNotifier -->
<g id="node25" class="node"><title>EmailNotifier</title>
<polygon fill="none" stroke="black" points="1734,-449 1630,-449 1630,-413 1734,-413 1734,-449"/>
<text text-anchor="middle" x="1682" y="-427.4" font-family="Times Roman,serif" font-size="14.00">EmailNotifier</text>
</g>
<!-- User&#45;&gt;Content -->
<g id="edge90" class="edge"><title>User&#45;&gt;Content</title>
<path fill="none" stroke="#7c5f01" d="M483.071,-282.463C491.579,-287.982 500.733,-294.099 509,-300 519.565,-307.541 520.617,-311.761 532,-318 548.946,-327.289 568.672,-334.966 586.421,-340.873"/>
<polygon fill="#7c5f01" stroke="#7c5f01" points="482.917,-282.364 476.933,-273.174 478.709,-279.662 474.502,-276.96 474.502,-276.96 474.502,-276.96 478.709,-279.662 472.07,-280.747 482.917,-282.364 482.917,-282.364"/>
<polygon fill="#7c5f01" stroke="#7c5f01" points="586.529,-340.908 594.669,-348.256 591.288,-342.44 596.048,-343.972 596.048,-343.972 596.048,-343.972 591.288,-342.44 597.427,-339.689 586.529,-340.908 586.529,-340.908"/>
<text text-anchor="middle" x="586" y="-305.4" font-family="Times Roman,serif" font-size="14.00">notify_contents</text>
</g>
<!-- User&#45;&gt;Notification -->
<g id="edge88" class="edge"><title>User&#45;&gt;Notification</title>
<path fill="none" stroke="#448990" d="M432.84,-239.514C426.017,-231.15 418.294,-221.684 411.303,-213.114"/>
<ellipse fill="none" stroke="#448990" cx="435.403" cy="-242.655" rx="4.00002" ry="4.00002"/>
<polygon fill="#448990" stroke="#448990" points="411.199,-212.986 408.365,-202.393 408.038,-209.111 404.878,-205.237 404.878,-205.237 404.878,-205.237 408.038,-209.111 401.391,-208.082 411.199,-212.986 411.199,-212.986"/>
</g>
<!-- User&#45;&gt;Article -->
<g id="edge92" class="edge"><title>User&#45;&gt;Article</title>
<path fill="none" stroke="#b40b4c" d="M489.798,-252.036C537.008,-238.341 617.717,-214.929 668.335,-200.246"/>
<ellipse fill="none" stroke="#b40b4c" cx="485.896" cy="-253.167" rx="4.00001" ry="4.00001"/>
<polygon fill="#b40b4c" stroke="#b40b4c" points="668.434,-200.218 679.292,-201.754 673.236,-198.825 678.038,-197.432 678.038,-197.432 678.038,-197.432 673.236,-198.825 676.784,-193.11 668.434,-200.218 668.434,-200.218"/>
</g>
<!-- Feedback::States -->
<g id="node28" class="node"><title>Feedback::States</title>
<polygon fill="none" stroke="black" stroke-dasharray="1,5" points="2222,-553 2088,-553 2088,-517 2222,-517 2222,-553"/>
<text text-anchor="middle" x="2155" y="-531.4" font-family="Times Roman,serif" font-size="14.00">Feedback::States</text>
</g>
<!-- Blog -->
<g id="node30" class="node"><title>Blog</title>
<ellipse fill="none" stroke="black" cx="1190" cy="-431" rx="33.234" ry="18.3848"/>
<text text-anchor="middle" x="1190" y="-427.4" font-family="Times Roman,serif" font-size="14.00">Blog</text>
</g>
<!-- BlogSweeper -->
<g id="node31" class="node"><title>BlogSweeper</title>
<polygon fill="none" stroke="black" points="2479,-449 2373,-449 2373,-413 2479,-413 2479,-449"/>
<text text-anchor="middle" x="2426" y="-427.4" font-family="Times Roman,serif" font-size="14.00">BlogSweeper</text>
</g>
<!-- ActiveRecord::Base -->
<g id="node33" class="node"><title>ActiveRecord::Base</title>
<ellipse fill="none" stroke="black" cx="610" cy="-535" rx="104.151" ry="18.3848"/>
<text text-anchor="middle" x="610" y="-531.4" font-family="Times Roman,serif" font-size="14.00">ActiveRecord::Base</text>
</g>
<!-- ActiveRecord::Base&#45;&gt;Resource -->
<g id="edge2" class="edge"><title>ActiveRecord::Base&#45;&gt;Resource</title>
<path fill="none" stroke="black" d="M576.399,-517.392C554.441,-506.81 524.783,-494.224 497,-488 329.412,-450.457 280.254,-499.126 111,-470 59.4677,-461.132 0,-483.29 0,-431 0,-431 0,-431 0,-187 0,-142.163 51.1999,-117.764 90.9999,-105.57"/>
</g>
<!-- ActiveRecord::Base&#45;&gt;Redirection -->
<g id="edge6" class="edge"><title>ActiveRecord::Base&#45;&gt;Redirection</title>
<path fill="none" stroke="black" d="M574.692,-517.569C552.812,-507.465 523.852,-495.33 497,-488 438.123,-471.928 265.059,-496.045 225,-450 180.553,-398.912 245.013,-317.153 278.257,-281.09"/>
</g>
<!-- ActiveRecord::Base&#45;&gt;Right -->
<g id="edge10" class="edge"><title>ActiveRecord::Base&#45;&gt;Right</title>
<path fill="none" stroke="black" d="M576.387,-517.447C554.424,-506.887 524.765,-494.305 497,-488 422.568,-471.098 225.63,-496.361 154,-470 141.029,-465.226 128.658,-455.927 119.349,-447.606"/>
</g>
<!-- ActiveRecord::Base&#45;&gt;Category -->
<g id="edge20" class="edge"><title>ActiveRecord::Base&#45;&gt;Category</title>
<path fill="none" stroke="black" d="M697.959,-524.994C772.625,-514.818 872.25,-496.724 902,-470 958.162,-419.55 969.308,-322.452 971.487,-281.713"/>
</g>
<!-- ActiveRecord::Base&#45;&gt;Redirect -->
<g id="edge26" class="edge"><title>ActiveRecord::Base&#45;&gt;Redirect</title>
<path fill="none" stroke="black" d="M595.876,-516.407C581.408,-497.36 559.063,-467.943 544.737,-449.084"/>
</g>
<!-- ActiveRecord::Base&#45;&gt;Sidebar -->
<g id="edge30" class="edge"><title>ActiveRecord::Base&#45;&gt;Sidebar</title>
<path fill="none" stroke="black" d="M572.638,-517.708C550.887,-508.087 522.757,-496.395 497,-488 428.331,-465.617 408.434,-469.882 339,-450 332.081,-448.019 324.75,-445.725 317.733,-443.432"/>
</g>
<!-- ActiveRecord::Base&#45;&gt;TextFilter -->
<g id="edge32" class="edge"><title>ActiveRecord::Base&#45;&gt;TextFilter</title>
<path fill="none" stroke="black" d="M575.225,-517.358C536.157,-497.538 473.33,-465.665 435.916,-446.684"/>
</g>
<!-- ActiveRecord::Base&#45;&gt;Content -->
<g id="edge48" class="edge"><title>ActiveRecord::Base&#45;&gt;Content</title>
<path fill="none" stroke="black" d="M614.54,-516.321C617.558,-503.381 621.425,-485.721 624,-470 629.521,-436.292 633.442,-396.64 635.454,-373.803"/>
</g>
<!-- ActiveRecord::Base&#45;&gt;Notification -->
<g id="edge50" class="edge"><title>ActiveRecord::Base&#45;&gt;Notification</title>
<path fill="none" stroke="black" d="M575.846,-517.415C553.915,-506.984 524.488,-494.554 497,-488 424.823,-470.791 168,-505.2 168,-431 168,-431 168,-431 168,-263 168,-228.628 264.463,-206.547 330.216,-195.489"/>
</g>
<!-- ActiveRecord::Base&#45;&gt;Trigger -->
<g id="edge52" class="edge"><title>ActiveRecord::Base&#45;&gt;Trigger</title>
<path fill="none" stroke="black" d="M689.673,-523.103C835.159,-500.837 1129,-453.127 1129,-431 1129,-431 1129,-431 1129,-225 1129,-185.183 1124.75,-138.669 1122.09,-113.486"/>
</g>
<!-- ActiveRecord::Base&#45;&gt;PostType -->
<g id="edge78" class="edge"><title>ActiveRecord::Base&#45;&gt;PostType</title>
<path fill="none" stroke="black" d="M631.177,-516.646C653.381,-497.403 688.016,-467.386 709.833,-448.478"/>
</g>
<!-- ActiveRecord::Base&#45;&gt;Profile -->
<g id="edge82" class="edge"><title>ActiveRecord::Base&#45;&gt;Profile</title>
<path fill="none" stroke="black" d="M576.389,-517.436C554.427,-506.871 524.768,-494.288 497,-488 449.141,-477.162 87.6595,-488.314 57,-450 39.2699,-427.843 53.8545,-393.854 65.9765,-373.105"/>
</g>
<!-- ActiveRecord::Base&#45;&gt;Categorization -->
<g id="edge84" class="edge"><title>ActiveRecord::Base&#45;&gt;Categorization</title>
<path fill="none" stroke="black" d="M684.048,-521.907C745.677,-511.416 835.816,-497.007 915,-488 1023.04,-475.71 1051.84,-488.453 1159,-470 1207.65,-461.623 1263,-480.365 1263,-431 1263,-431 1263,-431 1263,-187 1263,-161.58 1264.54,-132.247 1265.71,-113.667"/>
</g>
<!-- ActiveRecord::Base&#45;&gt;User -->
<g id="edge94" class="edge"><title>ActiveRecord::Base&#45;&gt;User</title>
<path fill="none" stroke="black" d="M611.968,-516.448C613.719,-490.601 613.208,-443.401 591,-412 540.02,-339.918 461.312,-393.773 416,-318 407.742,-304.19 419.501,-288.907 431.733,-277.964"/>
</g>
<!-- ActiveRecord::Base&#45;&gt;Ping -->
<g id="edge98" class="edge"><title>ActiveRecord::Base&#45;&gt;Ping</title>
<path fill="none" stroke="black" d="M684.865,-522.144C767.204,-505.827 888,-474.479 888,-431 888,-431 888,-431 888,-309 888,-222.5 968.128,-142.707 1005.37,-110.289"/>
</g>
<!-- ActiveRecord::Base&#45;&gt;Blog -->
<g id="edge100" class="edge"><title>ActiveRecord::Base&#45;&gt;Blog</title>
<path fill="none" stroke="black" d="M684.372,-521.962C745.999,-511.538 835.972,-497.196 915,-488 965.484,-482.126 1095.91,-489.121 1143,-470 1154.99,-465.133 1166.22,-456.048 1174.7,-447.87"/>
</g>
<!-- ActiveRecord::Base&#45;&gt;Tag -->
<g id="edge104" class="edge"><title>ActiveRecord::Base&#45;&gt;Tag</title>
<path fill="none" stroke="black" d="M695.959,-524.5C750.938,-512.426 812,-486.518 812,-431 812,-431 812,-431 812,-187 812,-160.608 883.728,-123.363 921.833,-105.439"/>
</g>
<!-- Object -->
<g id="node47" class="node"><title>Object</title>
<ellipse fill="none" stroke="black" cx="1350" cy="-535" rx="43.1335" ry="18.3848"/>
<text text-anchor="middle" x="1350" y="-531.4" font-family="Times Roman,serif" font-size="14.00">Object</text>
</g>
<!-- Object&#45;&gt;Theme -->
<g id="edge28" class="edge"><title>Object&#45;&gt;Theme</title>
<path fill="none" stroke="black" d="M1345.17,-516.407C1340.23,-497.36 1332.59,-467.943 1327.69,-449.084"/>
</g>
<!-- Object&#45;&gt;PageCache -->
<g id="edge80" class="edge"><title>Object&#45;&gt;PageCache</title>
<path fill="none" stroke="black" d="M1362.02,-516.885C1374.61,-497.912 1394.27,-468.282 1406.89,-449.257"/>
</g>
<!-- ActiveRecord::Observer -->
<g id="node51" class="node"><title>ActiveRecord::Observer</title>
<ellipse fill="none" stroke="black" cx="1577" cy="-535" rx="125.865" ry="18.3848"/>
<text text-anchor="middle" x="1577" y="-531.4" font-family="Times Roman,serif" font-size="14.00">ActiveRecord::Observer</text>
</g>
<!-- ActiveRecord::Observer&#45;&gt;WebNotifier -->
<g id="edge34" class="edge"><title>ActiveRecord::Observer&#45;&gt;WebNotifier</title>
<path fill="none" stroke="black" d="M1574.5,-516.407C1571.93,-497.36 1567.97,-467.943 1565.43,-449.084"/>
</g>
<!-- ActiveRecord::Observer&#45;&gt;EmailNotifier -->
<g id="edge86" class="edge"><title>ActiveRecord::Observer&#45;&gt;EmailNotifier</title>
<path fill="none" stroke="black" d="M1595.77,-516.407C1615,-497.36 1644.7,-467.943 1663.74,-449.084"/>
</g>
<!-- ActionMailer::Base -->
<g id="node53" class="node"><title>ActionMailer::Base</title>
<ellipse fill="none" stroke="black" cx="1836" cy="-535" rx="101.823" ry="18.3848"/>
<text text-anchor="middle" x="1836" y="-531.4" font-family="Times Roman,serif" font-size="14.00">ActionMailer::Base</text>
</g>
<!-- ActionMailer::Base&#45;&gt;NotificationMailer -->
<g id="edge36" class="edge"><title>ActionMailer::Base&#45;&gt;NotificationMailer</title>
<path fill="none" stroke="black" d="M1836,-516.407C1836,-497.36 1836,-467.943 1836,-449.084"/>
</g>
<!-- ActionController::Caching::Sweeper -->
<g id="node87" class="node"><title>ActionController::Caching::Sweeper</title>
<ellipse fill="none" stroke="black" cx="2426" cy="-535" rx="185.969" ry="18.3848"/>
<text text-anchor="middle" x="2426" y="-531.4" font-family="Times Roman,serif" font-size="14.00">ActionController::Caching::Sweeper</text>
</g>
<!-- ActionController::Caching::Sweeper&#45;&gt;BlogSweeper -->
<g id="edge102" class="edge"><title>ActionController::Caching::Sweeper&#45;&gt;BlogSweeper</title>
<path fill="none" stroke="black" d="M2426,-516.407C2426,-497.36 2426,-467.943 2426,-449.084"/>
</g>
</g>
</svg>
